<svg xmlns="http://www.w3.org/2000/svg" width="44" height="44" viewBox="0 0 44 44">
  <g id="Grupo_107" data-name="Grupo 107" transform="translate(-481 -6309)">
    <rect id="Rectángulo_48" data-name="Rectángulo 48" width="44" height="44" rx="6" transform="translate(481 6309)" fill="#00b1ff"/>
    <g id="Grupo_31" data-name="Grupo 31" transform="translate(489.968 6338.862)">
      <path id="Trazado_50" data-name="Trazado 50" d="M26.065-15.946a10.708,10.708,0,0,1-3.071.841,5.362,5.362,0,0,0,2.351-2.959,10.676,10.676,0,0,1-3.4,1.3,5.345,5.345,0,0,0-3.9-1.687A5.348,5.348,0,0,0,12.7-13.1a5.461,5.461,0,0,0,.138,1.217A15.185,15.185,0,0,1,1.815-17.476a5.345,5.345,0,0,0-.723,2.688A5.348,5.348,0,0,0,3.47-10.336a5.335,5.335,0,0,1-2.422-.669v.069a5.35,5.35,0,0,0,4.29,5.244,5.387,5.387,0,0,1-1.409.186A5.384,5.384,0,0,1,2.923-5.6a5.351,5.351,0,0,0,5,3.712A10.731,10.731,0,0,1,1.276.4,10.906,10.906,0,0,1,0,.327a15.123,15.123,0,0,0,8.2,2.4A15.11,15.11,0,0,0,23.412-12.485c0-.23-.006-.461-.016-.691a10.872,10.872,0,0,0,2.667-2.766Z" transform="translate(0 0)" fill="#fff"/>
    </g>
  </g>
</svg>
