<svg xmlns="http://www.w3.org/2000/svg" width="157.357" height="51.382" viewBox="0 0 157.357 51.382">
  <g id="Grupo_24" data-name="Grupo 24" transform="translate(0 116.509)">
    <path id="Trazado_15" data-name="Trazado 15" d="M207.748-77.719v-.114h1.473v.114h-.157a.422.422,0,0,0-.377.206.935.935,0,0,0-.064.442v1.687a2.979,2.979,0,0,1-.124.971,1.221,1.221,0,0,1-.488.592,1.74,1.74,0,0,1-.99.247,1.863,1.863,0,0,1-1.034-.236,1.276,1.276,0,0,1-.5-.635,3.515,3.515,0,0,1-.1-1.025V-77.1a.815.815,0,0,0-.106-.5.435.435,0,0,0-.342-.12h-.157v-.114h1.8v.114h-.159a.412.412,0,0,0-.368.163.908.908,0,0,0-.077.46v1.813a4.012,4.012,0,0,0,.045.555,1.182,1.182,0,0,0,.161.488.875.875,0,0,0,.336.288,1.16,1.16,0,0,0,.538.114,1.483,1.483,0,0,0,.73-.178.955.955,0,0,0,.441-.456,2.646,2.646,0,0,0,.118-.94V-77.1a.859.859,0,0,0-.086-.488.451.451,0,0,0-.356-.135Zm-80.266-.114,2.543,3.12v-2.4a.825.825,0,0,0-.086-.479.455.455,0,0,0-.359-.129h-.144v-.114h1.448v.114h-.147a.423.423,0,0,0-.374.16.931.931,0,0,0-.067.448V-73.6h-.11l-2.743-3.35v2.562a.852.852,0,0,0,.083.479.461.461,0,0,0,.359.129h.147v.114h-1.448v-.114h.144a.426.426,0,0,0,.378-.16.931.931,0,0,0,.067-.448v-2.893a1.889,1.889,0,0,0-.275-.279,1.006,1.006,0,0,0-.274-.126.978.978,0,0,0-.27-.028h-.139a.422.422,0,0,0-.377.206.935.935,0,0,0-.064.442v1.687a2.98,2.98,0,0,1-.124.971,1.221,1.221,0,0,1-.488.592,1.74,1.74,0,0,1-.99.247,1.863,1.863,0,0,1-1.034-.236,1.276,1.276,0,0,1-.5-.635,3.515,3.515,0,0,1-.1-1.025V-77.1a.815.815,0,0,0-.106-.5.435.435,0,0,0-.342-.12h-.156v-.114h1.8v.114h-.159a.412.412,0,0,0-.368.163.908.908,0,0,0-.077.46v1.813a3.945,3.945,0,0,0,.045.555,1.182,1.182,0,0,0,.161.488.875.875,0,0,0,.336.288,1.16,1.16,0,0,0,.538.114,1.485,1.485,0,0,0,.73-.178.955.955,0,0,0,.441-.456,2.647,2.647,0,0,0,.118-.94V-77.1a.859.859,0,0,0-.086-.488.451.451,0,0,0-.356-.135H124.9v-.114Zm90.727-.1a1.886,1.886,0,0,1,1.4.615,2.124,2.124,0,0,1,.594,1.536,2.188,2.188,0,0,1-.6,1.574,1.93,1.93,0,0,1-1.448.626,1.918,1.918,0,0,1-1.443-.611,2.189,2.189,0,0,1-.584-1.58,2.105,2.105,0,0,1,.675-1.617A1.991,1.991,0,0,1,218.208-77.928Zm-38.368,0a1.886,1.886,0,0,1,1.4.615,2.122,2.122,0,0,1,.594,1.536,2.187,2.187,0,0,1-.6,1.574,1.93,1.93,0,0,1-1.448.626,1.919,1.919,0,0,1-1.443-.611,2.191,2.191,0,0,1-.584-1.58,2.105,2.105,0,0,1,.675-1.617A1.992,1.992,0,0,1,179.84-77.928Zm43.486,0v1.439h-.113a1.785,1.785,0,0,0-.2-.66,1.029,1.029,0,0,0-.406-.39,1.125,1.125,0,0,0-.546-.144.742.742,0,0,0-.527.195.592.592,0,0,0-.209.443.524.524,0,0,0,.132.347,3.383,3.383,0,0,0,.9.614,6.242,6.242,0,0,1,.8.48,1.169,1.169,0,0,1,.329.394,1.038,1.038,0,0,1,.115.476,1.077,1.077,0,0,1-.367.815,1.327,1.327,0,0,1-.943.342,2,2,0,0,1-.34-.028,3.465,3.465,0,0,1-.394-.112,1.77,1.77,0,0,0-.379-.1.161.161,0,0,0-.121.046.369.369,0,0,0-.066.19h-.113V-75h.113a2.021,2.021,0,0,0,.215.67,1.031,1.031,0,0,0,.413.37,1.28,1.28,0,0,0,.609.147.866.866,0,0,0,.606-.2.627.627,0,0,0,.222-.479.651.651,0,0,0-.084-.31.926.926,0,0,0-.262-.291,7.529,7.529,0,0,0-.654-.391,6.3,6.3,0,0,1-.759-.477,1.285,1.285,0,0,1-.342-.393.975.975,0,0,1-.116-.472,1.023,1.023,0,0,1,.344-.772,1.223,1.223,0,0,1,.874-.324,1.754,1.754,0,0,1,.7.163.724.724,0,0,0,.243.077.183.183,0,0,0,.131-.048.38.38,0,0,0,.081-.192Zm-79.5,0,.1,1.414h-.1a1.78,1.78,0,0,0-.543-.914,1.324,1.324,0,0,0-.847-.279,1.379,1.379,0,0,0-.749.21,1.392,1.392,0,0,0-.526.67,2.985,2.985,0,0,0-.192,1.144,2.427,2.427,0,0,0,.181.979,1.356,1.356,0,0,0,.545.635,1.566,1.566,0,0,0,.83.221,1.438,1.438,0,0,0,.714-.173,2.354,2.354,0,0,0,.681-.689l.095.061a2.182,2.182,0,0,1-.73.813,1.849,1.849,0,0,1-.991.258,1.876,1.876,0,0,1-1.6-.767,2.193,2.193,0,0,1-.423-1.344,2.387,2.387,0,0,1,.279-1.144,2.02,2.02,0,0,1,.769-.808,2.077,2.077,0,0,1,1.069-.287,1.96,1.96,0,0,1,.89.221.484.484,0,0,0,.184.067.2.2,0,0,0,.144-.058.476.476,0,0,0,.114-.23Zm4.793,0a1.887,1.887,0,0,1,1.4.615,2.124,2.124,0,0,1,.594,1.536,2.186,2.186,0,0,1-.6,1.574,1.928,1.928,0,0,1-1.448.626,1.918,1.918,0,0,1-1.443-.611,2.19,2.19,0,0,1-.585-1.58,2.106,2.106,0,0,1,.675-1.617A1.992,1.992,0,0,1,148.617-77.928Zm51.687,0v1.439h-.113a1.794,1.794,0,0,0-.2-.66,1.028,1.028,0,0,0-.407-.39,1.123,1.123,0,0,0-.546-.144.742.742,0,0,0-.527.195.592.592,0,0,0-.209.443.524.524,0,0,0,.132.347,3.384,3.384,0,0,0,.9.614,6.241,6.241,0,0,1,.8.48,1.174,1.174,0,0,1,.329.394,1.043,1.043,0,0,1,.115.476,1.077,1.077,0,0,1-.366.815,1.327,1.327,0,0,1-.943.342,2,2,0,0,1-.34-.028,3.465,3.465,0,0,1-.394-.112,1.771,1.771,0,0,0-.379-.1.161.161,0,0,0-.121.046.369.369,0,0,0-.066.19h-.113V-75h.113a2.021,2.021,0,0,0,.215.67,1.031,1.031,0,0,0,.413.37,1.28,1.28,0,0,0,.609.147.866.866,0,0,0,.606-.2.627.627,0,0,0,.222-.479.651.651,0,0,0-.084-.31.925.925,0,0,0-.262-.291,7.531,7.531,0,0,0-.654-.391,6.345,6.345,0,0,1-.759-.477,1.29,1.29,0,0,1-.342-.393.976.976,0,0,1-.117-.472,1.024,1.024,0,0,1,.344-.772,1.224,1.224,0,0,1,.874-.324,1.754,1.754,0,0,1,.7.163.724.724,0,0,0,.243.077.184.184,0,0,0,.131-.048.38.38,0,0,0,.081-.192Zm-39.562,0,.1,1.414h-.1a1.78,1.78,0,0,0-.543-.914,1.322,1.322,0,0,0-.847-.279,1.377,1.377,0,0,0-.748.21,1.39,1.39,0,0,0-.527.67,2.994,2.994,0,0,0-.191,1.144,2.427,2.427,0,0,0,.181.979,1.356,1.356,0,0,0,.545.635,1.567,1.567,0,0,0,.83.221,1.441,1.441,0,0,0,.715-.173,2.358,2.358,0,0,0,.681-.689l.1.061a2.184,2.184,0,0,1-.73.813,1.849,1.849,0,0,1-.991.258,1.875,1.875,0,0,1-1.6-.767,2.193,2.193,0,0,1-.423-1.344,2.387,2.387,0,0,1,.279-1.144,2.022,2.022,0,0,1,.768-.808,2.077,2.077,0,0,1,1.069-.287,1.959,1.959,0,0,1,.89.221.483.483,0,0,0,.184.067.2.2,0,0,0,.144-.058.476.476,0,0,0,.114-.23Zm4.158.1h1.129l2.544,3.12v-2.4a.825.825,0,0,0-.086-.479.455.455,0,0,0-.359-.129h-.144v-.114h1.448v.114h-.147a.422.422,0,0,0-.374.16.931.931,0,0,0-.067.448V-73.6h-.111l-2.743-3.35v2.562a.852.852,0,0,0,.083.479.46.46,0,0,0,.359.129h.147v.114H165.13v-.114h.144a.426.426,0,0,0,.378-.16.931.931,0,0,0,.067-.448v-2.893a1.89,1.89,0,0,0-.275-.279,1.006,1.006,0,0,0-.274-.126.98.98,0,0,0-.27-.028Zm-14.129,0H151.9l2.543,3.12v-2.4a.83.83,0,0,0-.086-.479.455.455,0,0,0-.359-.129h-.144v-.114H155.3v.114h-.147a.422.422,0,0,0-.374.16.931.931,0,0,0-.067.448V-73.6H154.6l-2.743-3.35v2.562a.848.848,0,0,0,.083.479.46.46,0,0,0,.359.129h.147v.114H151v-.114h.144a.427.427,0,0,0,.378-.16.931.931,0,0,0,.067-.448v-2.893a1.911,1.911,0,0,0-.275-.279,1.009,1.009,0,0,0-.275-.126.974.974,0,0,0-.27-.028Zm-31.077.227v1.635h.758a.54.54,0,0,0,.382-.115.761.761,0,0,0,.161-.456h.113v1.408H121a.827.827,0,0,0-.063-.356.4.4,0,0,0-.166-.17.684.684,0,0,0-.314-.057h-.758v1.307a1.384,1.384,0,0,0,.04.417.276.276,0,0,0,.129.132.581.581,0,0,0,.282.074h.15v.114H118.51v-.114h.147a.444.444,0,0,0,.374-.15.931.931,0,0,0,.074-.473V-77.1a1.384,1.384,0,0,0-.04-.417.279.279,0,0,0-.126-.132.571.571,0,0,0-.282-.074h-.147v-.114h3.1l.04.914h-.107a1.261,1.261,0,0,0-.186-.428.609.609,0,0,0-.261-.2,1.391,1.391,0,0,0-.48-.061Zm26.474,3.82v.114h-1.782v-.114h.147a.444.444,0,0,0,.374-.15.931.931,0,0,0,.074-.473V-77.1a1.384,1.384,0,0,0-.04-.417.279.279,0,0,0-.126-.132.584.584,0,0,0-.283-.074h-.147v-.114h1.782v.114h-.15a.441.441,0,0,0-.371.15.9.9,0,0,0-.077.473v2.688a1.385,1.385,0,0,0,.04.417.277.277,0,0,0,.129.132.566.566,0,0,0,.28.074Zm69.592,0v.114h-1.783v-.114h.147a.444.444,0,0,0,.374-.15.931.931,0,0,0,.074-.473V-77.1a1.384,1.384,0,0,0-.04-.417.279.279,0,0,0-.126-.132.582.582,0,0,0-.282-.074h-.147v-.114h1.783v.114h-.15a.441.441,0,0,0-.371.15.9.9,0,0,0-.077.473v2.688a1.384,1.384,0,0,0,.04.417.276.276,0,0,0,.129.132.563.563,0,0,0,.279.074Zm-38.16.114h-1.111l-1.408-1.945c-.1,0-.189.006-.254.006l-.181-.006v1.209a.85.85,0,0,0,.086.488.438.438,0,0,0,.35.135h.163v.114h-1.783v-.114h.157a.419.419,0,0,0,.378-.172.971.971,0,0,0,.064-.451V-77.1a.849.849,0,0,0-.086-.488.451.451,0,0,0-.356-.135h-.157v-.114h1.516a3.606,3.606,0,0,1,.977.1,1.119,1.119,0,0,1,.534.356.925.925,0,0,1,.219.618.971.971,0,0,1-.25.666,1.412,1.412,0,0,1-.774.4l.859,1.193a2.133,2.133,0,0,0,.506.546,1.275,1.275,0,0,0,.552.172Zm-15.14-3.933v1.644h.915a.745.745,0,0,0,.475-.107.692.692,0,0,0,.178-.5h.114v1.448h-.114a1.612,1.612,0,0,0-.086-.39.386.386,0,0,0-.181-.169.923.923,0,0,0-.386-.061h-.915v1.371a1.273,1.273,0,0,0,.025.336.193.193,0,0,0,.086.1.523.523,0,0,0,.233.035h.706a1.909,1.909,0,0,0,.512-.049.763.763,0,0,0,.307-.193,2.362,2.362,0,0,0,.39-.574h.123l-.359,1.043h-3.206v-.114h.147a.583.583,0,0,0,.279-.071.259.259,0,0,0,.134-.147,1.451,1.451,0,0,0,.035-.4v-2.7a.9.9,0,0,0-.08-.488.475.475,0,0,0-.368-.123h-.147v-.114h3.206l.046.911h-.12a1.423,1.423,0,0,0-.143-.451.489.489,0,0,0-.232-.187,1.387,1.387,0,0,0-.433-.046Zm46.933,3.933v-.114h.157a.413.413,0,0,0,.374-.169.961.961,0,0,0,.067-.454V-77.1a.858.858,0,0,0-.086-.488.451.451,0,0,0-.356-.135h-.157v-.114h1.693a3.7,3.7,0,0,1,1.419.212,1.689,1.689,0,0,1,.782.706,2.179,2.179,0,0,1,.3,1.141,2.081,2.081,0,0,1-.528,1.451,2.321,2.321,0,0,1-1.8.65Zm-19.9-3.933v1.644h.914a.745.745,0,0,0,.475-.107.69.69,0,0,0,.178-.5h.114v1.448h-.114a1.568,1.568,0,0,0-.086-.39.386.386,0,0,0-.181-.169.923.923,0,0,0-.386-.061H189.5v1.371a1.282,1.282,0,0,0,.024.336.193.193,0,0,0,.086.1.523.523,0,0,0,.233.035h.706a1.915,1.915,0,0,0,.512-.049.762.762,0,0,0,.307-.193,2.362,2.362,0,0,0,.39-.574h.123l-.359,1.043h-3.206v-.114h.147a.583.583,0,0,0,.279-.071.257.257,0,0,0,.134-.147,1.449,1.449,0,0,0,.035-.4v-2.7a.893.893,0,0,0-.08-.488.475.475,0,0,0-.368-.123h-.147v-.114h3.206l.046.911h-.12a1.437,1.437,0,0,0-.142-.451.492.492,0,0,0-.232-.187,1.387,1.387,0,0,0-.433-.046Zm-58.417,3.933v-.114h.157a.413.413,0,0,0,.374-.169.962.962,0,0,0,.067-.454V-77.1a.858.858,0,0,0-.086-.488.451.451,0,0,0-.356-.135h-.157v-.114h1.693a3.7,3.7,0,0,1,1.419.212,1.689,1.689,0,0,1,.782.706,2.179,2.179,0,0,1,.3,1.141,2.083,2.083,0,0,1-.527,1.451,2.322,2.322,0,0,1-1.8.65Zm7.3-1.393H136.77l-.282.657a1.045,1.045,0,0,0-.1.362.21.21,0,0,0,.09.167.792.792,0,0,0,.391.094v.114h-1.31v-.114a.706.706,0,0,0,.338-.12,1.888,1.888,0,0,0,.347-.6l1.463-3.424h.108l1.448,3.461a1.587,1.587,0,0,0,.318.541.648.648,0,0,0,.4.14v.114h-1.641v-.114a.615.615,0,0,0,.336-.083.214.214,0,0,0,.087-.172,1.266,1.266,0,0,0-.123-.426Zm45.374,1.393v-.114h.157a.413.413,0,0,0,.374-.169.962.962,0,0,0,.067-.454V-77.1a.858.858,0,0,0-.086-.488.451.451,0,0,0-.356-.135h-.157v-.114h1.693a3.7,3.7,0,0,1,1.419.212,1.689,1.689,0,0,1,.782.706,2.179,2.179,0,0,1,.3,1.141,2.083,2.083,0,0,1-.527,1.451,2.322,2.322,0,0,1-1.8.65Zm-10.6-4.16.046.976h-.117a1.181,1.181,0,0,0-.092-.368.619.619,0,0,0-.253-.262.883.883,0,0,0-.416-.084h-.586v3.178a.852.852,0,0,0,.083.479.461.461,0,0,0,.359.129h.144v.114h-1.764v-.114h.147a.421.421,0,0,0,.374-.16.924.924,0,0,0,.068-.448v-3.178h-.5a1.4,1.4,0,0,0-.415.043.57.57,0,0,0-.273.224.912.912,0,0,0-.135.448h-.116l.049-.976Zm21.747.227v1.644h.914a.747.747,0,0,0,.476-.107.692.692,0,0,0,.178-.5h.113v1.448h-.113a1.583,1.583,0,0,0-.086-.39.383.383,0,0,0-.181-.169.924.924,0,0,0-.387-.061H194.9v1.371a1.272,1.272,0,0,0,.025.336.193.193,0,0,0,.086.1.52.52,0,0,0,.233.035h.706a1.911,1.911,0,0,0,.512-.049.767.767,0,0,0,.307-.193,2.363,2.363,0,0,0,.389-.574h.123l-.359,1.043h-3.206v-.114h.147a.585.585,0,0,0,.279-.071.26.26,0,0,0,.134-.147,1.45,1.45,0,0,0,.035-.4v-2.7a.9.9,0,0,0-.08-.488.476.476,0,0,0-.368-.123h-.147v-.114h3.206l.046.911h-.12a1.435,1.435,0,0,0-.143-.451.489.489,0,0,0-.232-.187,1.387,1.387,0,0,0-.433-.046Zm9.65-.227.046.976h-.116a1.179,1.179,0,0,0-.092-.368.616.616,0,0,0-.253-.262.883.883,0,0,0-.416-.084h-.586v3.178a.848.848,0,0,0,.083.479.46.46,0,0,0,.359.129h.144v.114h-1.764v-.114h.147a.423.423,0,0,0,.374-.16.931.931,0,0,0,.067-.448v-3.178h-.5a1.391,1.391,0,0,0-.414.043.568.568,0,0,0-.273.224.9.9,0,0,0-.135.448h-.117l.049-.976Zm13.6.129a1.1,1.1,0,0,0-.9.414,2.34,2.34,0,0,0-.42,1.509,2.47,2.47,0,0,0,.436,1.568,1.076,1.076,0,0,0,.883.417,1.207,1.207,0,0,0,.968-.457,2.23,2.23,0,0,0,.382-1.442,2.52,2.52,0,0,0-.42-1.592A1.134,1.134,0,0,0,218.15-77.7Zm-38.369,0a1.1,1.1,0,0,0-.9.414,2.343,2.343,0,0,0-.42,1.509,2.47,2.47,0,0,0,.436,1.568,1.076,1.076,0,0,0,.883.417,1.207,1.207,0,0,0,.968-.457,2.228,2.228,0,0,0,.382-1.442,2.517,2.517,0,0,0-.42-1.592A1.134,1.134,0,0,0,179.782-77.7Zm-31.223,0a1.1,1.1,0,0,0-.9.414,2.34,2.34,0,0,0-.42,1.509,2.473,2.473,0,0,0,.435,1.568,1.077,1.077,0,0,0,.884.417,1.208,1.208,0,0,0,.968-.457,2.23,2.23,0,0,0,.382-1.442,2.52,2.52,0,0,0-.42-1.592A1.134,1.134,0,0,0,148.559-77.7Zm36.383,3.731a3.132,3.132,0,0,0,.654.086,1.552,1.552,0,0,0,1.181-.5,1.9,1.9,0,0,0,.469-1.356,1.9,1.9,0,0,0-.469-1.359,1.585,1.585,0,0,0-1.206-.5,2.608,2.608,0,0,0-.629.089Zm-52.676,0a3.132,3.132,0,0,0,.653.086,1.552,1.552,0,0,0,1.181-.5,1.9,1.9,0,0,0,.469-1.356A1.9,1.9,0,0,0,134.1-77.1a1.585,1.585,0,0,0-1.206-.5,2.6,2.6,0,0,0-.629.089Zm78.315,0a3.132,3.132,0,0,0,.654.086,1.551,1.551,0,0,0,1.181-.5,1.9,1.9,0,0,0,.47-1.356,1.9,1.9,0,0,0-.47-1.359,1.584,1.584,0,0,0-1.206-.5,2.608,2.608,0,0,0-.629.089Zm-72.286-1.319-.706-1.681-.724,1.681Zm36.351-.519.172,0a1.352,1.352,0,0,0,.9-.258.825.825,0,0,0,.3-.657.857.857,0,0,0-.244-.634.873.873,0,0,0-.646-.244,2.706,2.706,0,0,0-.482.058Zm-25.39-3.375-.9,1.058h-.1l.322-1.058Z" transform="translate(-66.246 -20.863)" fill="#6a918f"/>
    <path id="Trazado_16" data-name="Trazado 16" d="M146.341-57.949l.2,2.957h-.2a3.722,3.722,0,0,0-1.135-1.912,2.766,2.766,0,0,0-1.771-.584,2.881,2.881,0,0,0-1.565.439,2.907,2.907,0,0,0-1.1,1.4,6.244,6.244,0,0,0-.4,2.393,5.082,5.082,0,0,0,.378,2.046,2.838,2.838,0,0,0,1.139,1.328,3.275,3.275,0,0,0,1.735.462,3.009,3.009,0,0,0,1.495-.362,4.921,4.921,0,0,0,1.424-1.44l.2.128a4.566,4.566,0,0,1-1.527,1.7,3.864,3.864,0,0,1-2.072.539,3.922,3.922,0,0,1-3.349-1.6,4.586,4.586,0,0,1-.885-2.81,4.992,4.992,0,0,1,.583-2.393,4.225,4.225,0,0,1,1.607-1.69,4.343,4.343,0,0,1,2.236-.6,4.1,4.1,0,0,1,1.861.462,1.009,1.009,0,0,0,.385.141.424.424,0,0,0,.3-.122,1,1,0,0,0,.237-.481Zm10.156.2h2.36l5.318,6.524v-5.016a1.728,1.728,0,0,0-.179-1,.951.951,0,0,0-.751-.269h-.3v-.237h3.028v.237h-.308a.884.884,0,0,0-.783.334,1.948,1.948,0,0,0-.141.937v7.332h-.231l-5.735-7.005v5.356a1.779,1.779,0,0,0,.173,1,.964.964,0,0,0,.751.269h.308v.237h-3.028v-.237h.3a.891.891,0,0,0,.789-.334,1.943,1.943,0,0,0,.141-.937v-6.049a3.957,3.957,0,0,0-.574-.584,2.1,2.1,0,0,0-.574-.263,2.048,2.048,0,0,0-.564-.058Zm9.879,8.7v-.237h.327a.863.863,0,0,0,.782-.353,2.013,2.013,0,0,0,.141-.949v-5.619a1.8,1.8,0,0,0-.179-1.02.943.943,0,0,0-.744-.282h-.327v-.237h3.541a7.736,7.736,0,0,1,2.967.443,3.53,3.53,0,0,1,1.636,1.475,4.555,4.555,0,0,1,.619,2.386,4.352,4.352,0,0,1-1.1,3.034,4.852,4.852,0,0,1-3.772,1.36ZM125.9-51.457l.212.045-.744,2.361h-6.736v-.237h.327a.875.875,0,0,0,.789-.359,2.076,2.076,0,0,0,.135-.949v-5.613a1.8,1.8,0,0,0-.179-1.02.944.944,0,0,0-.744-.282h-.327v-.237h3.939v.237a2.4,2.4,0,0,0-.972.128.784.784,0,0,0-.381.34,2.788,2.788,0,0,0-.1.981V-50.6a1.771,1.771,0,0,0,.1.731.457.457,0,0,0,.237.2,4.162,4.162,0,0,0,1,.064h.635a4.6,4.6,0,0,0,1.4-.148,1.828,1.828,0,0,0,.738-.523A4.284,4.284,0,0,0,125.9-51.457Zm94.385-.507H216.92l-.59,1.373a2.172,2.172,0,0,0-.218.757.44.44,0,0,0,.189.35,1.653,1.653,0,0,0,.818.2v.237H214.38v-.237a1.477,1.477,0,0,0,.706-.25,3.933,3.933,0,0,0,.725-1.251l3.06-7.159h.224l3.028,7.236a3.293,3.293,0,0,0,.664,1.132,1.354,1.354,0,0,0,.831.292v.237h-3.432v-.237a1.286,1.286,0,0,0,.7-.173.446.446,0,0,0,.183-.359,2.659,2.659,0,0,0-.257-.892Zm-6.325,2.675v.237h-3.727v-.237h.308a.928.928,0,0,0,.782-.314,1.952,1.952,0,0,0,.154-.988v-5.619a2.881,2.881,0,0,0-.083-.872.577.577,0,0,0-.263-.276,1.217,1.217,0,0,0-.59-.154h-.308v-.237h3.727v.237h-.314a.921.921,0,0,0-.776.314,1.882,1.882,0,0,0-.161.988v5.619a2.882,2.882,0,0,0,.083.872.575.575,0,0,0,.269.276,1.18,1.18,0,0,0,.584.154ZM132.4-51.964h-3.368l-.59,1.373a2.172,2.172,0,0,0-.218.757.44.44,0,0,0,.189.35,1.654,1.654,0,0,0,.818.2v.237h-2.739v-.237a1.477,1.477,0,0,0,.706-.25,3.933,3.933,0,0,0,.725-1.251l3.06-7.159h.224l3.028,7.236a3.293,3.293,0,0,0,.664,1.132,1.354,1.354,0,0,0,.831.292v.237H132.3v-.237a1.289,1.289,0,0,0,.7-.173.447.447,0,0,0,.183-.359,2.659,2.659,0,0,0-.257-.892Zm77.629,2.912h-2.322l-2.945-4.067q-.327.013-.532.013l-.179,0-.2-.01v2.527a1.778,1.778,0,0,0,.179,1.02.914.914,0,0,0,.731.282h.34v.237h-3.727v-.237h.327a.875.875,0,0,0,.789-.359,2.022,2.022,0,0,0,.135-.943v-5.619a1.774,1.774,0,0,0-.18-1.02.942.942,0,0,0-.744-.282h-.327v-.237h3.169a7.539,7.539,0,0,1,2.043.2,2.339,2.339,0,0,1,1.116.744,1.937,1.937,0,0,1,.459,1.293,2.032,2.032,0,0,1-.523,1.392,2.952,2.952,0,0,1-1.62.834l1.8,2.5a4.465,4.465,0,0,0,1.058,1.142,2.666,2.666,0,0,0,1.155.359Zm-31.651-8.224v3.438h1.911a1.559,1.559,0,0,0,.994-.225,1.447,1.447,0,0,0,.372-1.039h.237v3.028h-.237a3.307,3.307,0,0,0-.18-.815.8.8,0,0,0-.378-.353,1.932,1.932,0,0,0-.808-.128h-1.911V-50.5a2.658,2.658,0,0,0,.051.7.4.4,0,0,0,.179.2,1.092,1.092,0,0,0,.488.074h1.475a4,4,0,0,0,1.071-.1,1.6,1.6,0,0,0,.642-.4,4.935,4.935,0,0,0,.815-1.2h.257l-.751,2.181h-6.7v-.237h.308a1.22,1.22,0,0,0,.584-.148.539.539,0,0,0,.279-.308,3.006,3.006,0,0,0,.074-.84v-5.652a1.871,1.871,0,0,0-.167-1.02,1,1,0,0,0-.77-.257H175.9v-.237h6.7l.1,1.905h-.25a3,3,0,0,0-.3-.943,1.025,1.025,0,0,0-.484-.391,2.908,2.908,0,0,0-.9-.1Zm19.3,5.312h-3.368l-.591,1.373a2.179,2.179,0,0,0-.218.757.44.44,0,0,0,.189.35,1.652,1.652,0,0,0,.818.2v.237h-2.739v-.237a1.473,1.473,0,0,0,.706-.25,3.923,3.923,0,0,0,.725-1.251l3.06-7.159h.224l3.028,7.236a3.3,3.3,0,0,0,.664,1.132,1.354,1.354,0,0,0,.83.292v.237h-3.432v-.237a1.286,1.286,0,0,0,.7-.173.446.446,0,0,0,.183-.359,2.659,2.659,0,0,0-.257-.892Zm-44.482,0h-3.368l-.59,1.373a2.172,2.172,0,0,0-.218.757.44.44,0,0,0,.189.35,1.653,1.653,0,0,0,.818.2v.237h-2.739v-.237a1.477,1.477,0,0,0,.706-.25,3.932,3.932,0,0,0,.725-1.251l3.06-7.159h.224l3.028,7.236a3.293,3.293,0,0,0,.664,1.132,1.354,1.354,0,0,0,.831.292v.237H153.1v-.237a1.286,1.286,0,0,0,.7-.173.446.446,0,0,0,.183-.359,2.659,2.659,0,0,0-.257-.892Zm37.984.507.212.045-.744,2.361h-6.736v-.237h.327a.875.875,0,0,0,.789-.359,2.068,2.068,0,0,0,.135-.949v-5.613a1.793,1.793,0,0,0-.18-1.02.942.942,0,0,0-.744-.282h-.327v-.237h3.939v.237a2.4,2.4,0,0,0-.972.128.785.785,0,0,0-.382.34,2.8,2.8,0,0,0-.1.981V-50.6a1.779,1.779,0,0,0,.1.731.46.46,0,0,0,.237.2,4.167,4.167,0,0,0,1,.064h.635a4.6,4.6,0,0,0,1.4-.148,1.829,1.829,0,0,0,.738-.523A4.3,4.3,0,0,0,191.183-51.457ZM168.858-49.68a6.55,6.55,0,0,0,1.366.18,3.243,3.243,0,0,0,2.47-1.046,3.976,3.976,0,0,0,.982-2.835,3.971,3.971,0,0,0-.982-2.842,3.313,3.313,0,0,0-2.521-1.039,5.447,5.447,0,0,0-1.315.186Zm51.25-2.758-1.475-3.515-1.514,3.515Zm-87.887,0-1.475-3.515-1.514,3.515Zm20.8,0-1.475-3.515-1.514,3.515Zm44.482,0-1.476-3.515-1.514,3.515Zm6.351-1.084.359.006a2.826,2.826,0,0,0,1.877-.539,1.725,1.725,0,0,0,.632-1.373,1.792,1.792,0,0,0-.51-1.325,1.825,1.825,0,0,0-1.35-.51,5.658,5.658,0,0,0-1.007.122Z" transform="translate(-66.315 -32.734)" fill="#6a918f"/>
    <path id="Trazado_17" data-name="Trazado 17" d="M49.869-115.014V-72.5a7.571,7.571,0,0,1-7.549,7.549H9.077a7.7,7.7,0,0,1-7.57-7.674L1.5-102.847l0-.572v-11.566H1.66v-.029Z" transform="translate(-0.836 -0.836)" fill="#567372" fill-rule="evenodd"/>
    <path id="Trazado_18" data-name="Trazado 18" d="M49.692-116.509v43.173a8.18,8.18,0,0,1-2.411,5.8,8.178,8.178,0,0,1-5.8,2.411H8.24a8.14,8.14,0,0,1-5.8-2.463A8.386,8.386,0,0,1,.013-73.46L0-103.683v0l0-.568H0v-12.227H.164v-.028Zm-1.32,43.173V-115.19H1.482v.029H1.32v10.907l0,0,0,.571L1.327-73.46a7.071,7.071,0,0,0,2.056,4.948A6.823,6.823,0,0,0,8.24-66.446H41.483a6.873,6.873,0,0,0,4.866-2.024A6.875,6.875,0,0,0,48.373-73.336Z" fill="#a6d4ab" fill-rule="evenodd"/>
    <path id="Trazado_19" data-name="Trazado 19" d="M50.018-114.025v41.616a7.4,7.4,0,0,1-7.375,7.391H10.17A7.527,7.527,0,0,1,2.776-72.53l-.013-29.584,0-.559V-114h.159v-.029Z" transform="translate(-1.545 -1.389)" fill="none" stroke="#fff" stroke-width="1.063"/>
    <path id="Trazado_20" data-name="Trazado 20" d="M20.949-60.983v-.248h3.218v.248h-.342a.923.923,0,0,0-.825.449,2.051,2.051,0,0,0-.141.965v3.687a6.517,6.517,0,0,1-.272,2.122,2.664,2.664,0,0,1-1.066,1.294,3.8,3.8,0,0,1-2.162.54,4.071,4.071,0,0,1-2.259-.516,2.8,2.8,0,0,1-1.093-1.388,7.7,7.7,0,0,1-.215-2.239v-3.553a1.78,1.78,0,0,0-.231-1.1.951.951,0,0,0-.747-.261h-.342v-.248H18.4v.248h-.349a.9.9,0,0,0-.8.355,1.985,1.985,0,0,0-.168,1.006v3.962a8.734,8.734,0,0,0,.1,1.213,2.583,2.583,0,0,0,.352,1.066,1.915,1.915,0,0,0,.734.63,2.538,2.538,0,0,0,1.177.248,3.244,3.244,0,0,0,1.6-.389,2.083,2.083,0,0,0,.962-1,5.766,5.766,0,0,0,.258-2.055v-3.68a1.876,1.876,0,0,0-.188-1.066.985.985,0,0,0-.778-.295Zm11.624-.456.208,3.09h-.208a3.89,3.89,0,0,0-1.187-2,2.89,2.89,0,0,0-1.85-.61A3.011,3.011,0,0,0,27.9-60.5a3.037,3.037,0,0,0-1.15,1.465,6.524,6.524,0,0,0-.419,2.5,5.31,5.31,0,0,0,.4,2.139,2.963,2.963,0,0,0,1.19,1.388,3.422,3.422,0,0,0,1.813.483,3.145,3.145,0,0,0,1.562-.379,5.148,5.148,0,0,0,1.488-1.505l.208.134a4.773,4.773,0,0,1-1.6,1.777,4.038,4.038,0,0,1-2.165.563,4.1,4.1,0,0,1-3.5-1.676,4.792,4.792,0,0,1-.925-2.936,5.215,5.215,0,0,1,.61-2.5,4.414,4.414,0,0,1,1.679-1.766,4.537,4.537,0,0,1,2.336-.627,4.282,4.282,0,0,1,1.944.483,1.055,1.055,0,0,0,.4.148.443.443,0,0,0,.315-.127,1.045,1.045,0,0,0,.248-.5Zm17.529,0,.208,3.09H50.1a3.89,3.89,0,0,0-1.186-2,2.891,2.891,0,0,0-1.85-.61,3.011,3.011,0,0,0-1.636.459,3.038,3.038,0,0,0-1.15,1.465,6.525,6.525,0,0,0-.419,2.5,5.31,5.31,0,0,0,.4,2.139,2.963,2.963,0,0,0,1.19,1.388,3.423,3.423,0,0,0,1.813.483,3.146,3.146,0,0,0,1.562-.379,5.15,5.15,0,0,0,1.488-1.505l.208.134a4.775,4.775,0,0,1-1.6,1.777,4.038,4.038,0,0,1-2.165.563,4.1,4.1,0,0,1-3.5-1.676,4.792,4.792,0,0,1-.925-2.936,5.214,5.214,0,0,1,.61-2.5,4.414,4.414,0,0,1,1.679-1.766,4.537,4.537,0,0,1,2.336-.627,4.281,4.281,0,0,1,1.944.483,1.057,1.057,0,0,0,.4.148.443.443,0,0,0,.315-.127,1.044,1.044,0,0,0,.248-.5Zm-40.522.7v3.573h1.656a1.18,1.18,0,0,0,.835-.251,1.663,1.663,0,0,0,.352-1h.248v3.077h-.248a1.8,1.8,0,0,0-.137-.778.869.869,0,0,0-.362-.372,1.5,1.5,0,0,0-.687-.124H9.58v2.856a3.011,3.011,0,0,0,.087.912.6.6,0,0,0,.282.288,1.271,1.271,0,0,0,.617.161h.328v.248h-3.9v-.248h.322a.971.971,0,0,0,.818-.329,2.041,2.041,0,0,0,.161-1.032v-5.873a3.011,3.011,0,0,0-.087-.912.6.6,0,0,0-.275-.288,1.246,1.246,0,0,0-.617-.161H6.992v-.248h6.764l.087,2h-.235a2.748,2.748,0,0,0-.406-.935,1.332,1.332,0,0,0-.57-.432,3.042,3.042,0,0,0-1.049-.134Zm26.746,0v3.593h2a1.628,1.628,0,0,0,1.039-.235,1.51,1.51,0,0,0,.389-1.086H40V-55.3h-.248a3.462,3.462,0,0,0-.188-.851.839.839,0,0,0-.4-.369,2.02,2.02,0,0,0-.845-.134h-2v3a2.785,2.785,0,0,0,.054.734.422.422,0,0,0,.188.208,1.139,1.139,0,0,0,.509.077h1.542a4.176,4.176,0,0,0,1.12-.107,1.669,1.669,0,0,0,.67-.422,5.158,5.158,0,0,0,.851-1.254h.268l-.784,2.279H33.739v-.248h.322a1.275,1.275,0,0,0,.61-.154.564.564,0,0,0,.292-.322,3.155,3.155,0,0,0,.077-.878v-5.906a1.955,1.955,0,0,0-.174-1.066,1.038,1.038,0,0,0-.8-.268h-.322v-.248h7.005l.1,1.991h-.261a3.141,3.141,0,0,0-.312-.985,1.071,1.071,0,0,0-.506-.409,3.037,3.037,0,0,0-.945-.1Z" transform="translate(-3.909 -30.784)" fill="#fff"/>
    <path id="Trazado_21" data-name="Trazado 21" d="M31.041-75.993a.941.941,0,0,0-.223-.167.57.57,0,0,0-.346-.057.832.832,0,0,1,.257.1.53.53,0,0,1,.239.5c.008.141.078.166.143.235l-.035.087a1.386,1.386,0,0,0-1.138.238c-.05.05-.045.064-.092.114a1.568,1.568,0,0,0-.756.172.713.713,0,0,0-.357.57,2.9,2.9,0,0,0,.455,1.393,1.173,1.173,0,0,0-.305.113.168.168,0,0,0,.02.279c.1.056.225-.024.337-.052a11.633,11.633,0,0,1,2.847-.149,9.837,9.837,0,0,1,1.14.156c.168.037.271.092.361.051a.178.178,0,0,0,.038-.28c-.078-.067-.224-.059-.321-.107.046-.15.953-1.45.112-1.967a1.509,1.509,0,0,0-.764-.177c-.044-.04-.048-.07-.085-.109a1.4,1.4,0,0,0-1.151-.241.45.45,0,0,0-.031-.09c.253-.218.063-.282.2-.541.13-.239.286-.242.437-.3a.579.579,0,0,0-.347.058c-.162.08-.153.132-.227.167a4.9,4.9,0,0,0-.211-.694Z" transform="translate(-16.058 -22.26)" fill="#fff" fill-rule="evenodd"/>
    <path id="Trazado_22" data-name="Trazado 22" d="M29.443-66.868l.141.31c.053.116.021.1.14.071a3.277,3.277,0,0,1,.345-.083,9.777,9.777,0,0,1,1.557-.122c.392,0,.771.034,1.068.063a3.868,3.868,0,0,1,.87.159c.091.02.076.038.1-.034l.144-.378c.035-.093.055-.086-.048-.123a6.032,6.032,0,0,0-.935-.178,7.92,7.92,0,0,0-1.2-.08,7.263,7.263,0,0,0-2.1.247l-.067.023C29.372-66.959,29.4-66.959,29.443-66.868Z" transform="translate(-16.436 -27.528)" fill="#fff" fill-rule="evenodd"/>
    <path id="Trazado_23" data-name="Trazado 23" d="M32.177-70.79l.568-.019V-72.77a1.347,1.347,0,0,0-.77.043C31.285-72.39,32.141-70.929,32.177-70.79Z" transform="translate(-17.724 -24.43)" fill="#567372" fill-rule="evenodd"/>
    <path id="Trazado_24" data-name="Trazado 24" d="M34.833-72.768c-.02.071-.011,1.755-.007,1.965l.567.018.273-.6a2.781,2.781,0,0,0,.187-.7C35.91-72.8,35.466-72.841,34.833-72.768Z" transform="translate(-19.464 -24.436)" fill="#567372" fill-rule="evenodd"/>
    <path id="Trazado_25" data-name="Trazado 25" d="M36.948-70.284l.59.069a3.631,3.631,0,0,0,.456-.973c.124-.505-.128-.734-.618-.746a2.14,2.14,0,0,1-.116.912A4.836,4.836,0,0,1,36.948-70.284Z" transform="translate(-20.653 -24.917)" fill="#567372" fill-rule="evenodd"/>
    <path id="Trazado_26" data-name="Trazado 26" d="M29.982-70.219l.589-.064a3.132,3.132,0,0,1-.427-1.653c-.476.043-.75.207-.623.737A3.61,3.61,0,0,0,29.982-70.219Z" transform="translate(-16.485 -24.916)" fill="#567372" fill-rule="evenodd"/>
    <path id="Trazado_27" data-name="Trazado 27" d="M33.888-65.33c.092-.153-.017-.182-.221-.246a6.341,6.341,0,0,0-1.563-.183,6.188,6.188,0,0,0-2.076.254.119.119,0,0,0-.013.2c.066.047.141-.007.208-.033a6.792,6.792,0,0,1,2.182-.189,6,6,0,0,1,.984.118c.076.017.2.056.3.085C33.772-65.305,33.845-65.258,33.888-65.33Z" transform="translate(-16.753 -28.369)" fill="#fff" fill-rule="evenodd"/>
    <path id="Trazado_28" data-name="Trazado 28" d="M24.026-69.493l.163.4.464-.017-.365.263.163.4-.387-.238-.364.264.126-.41-.388-.235.464-.016Z" transform="translate(-13.102 -26.281)" fill="#a6d4ab" fill-rule="evenodd"/>
    <path id="Trazado_29" data-name="Trazado 29" d="M23.954-73.291l.057.42.457.074-.422.185.058.421-.317-.307-.422.187.227-.375-.319-.305.457.075Z" transform="translate(-13.01 -24.158)" fill="#a6d4ab" fill-rule="evenodd"/>
    <path id="Trazado_30" data-name="Trazado 30" d="M25.246-76.63l-.051.422.428.16-.459.1-.05.422-.231-.361-.458.1.315-.321-.234-.36.427.161Z" transform="translate(-13.653 -22.292)" fill="#a6d4ab" fill-rule="evenodd"/>
    <path id="Trazado_31" data-name="Trazado 31" d="M28.566-78.589l-.482.029-.105.4-.19-.379-.484.032.365-.263-.193-.378.417.216.364-.264-.108.4Z" transform="translate(-15.263 -20.855)" fill="#a6d4ab" fill-rule="evenodd"/>
    <path id="Trazado_32" data-name="Trazado 32" d="M31.492-79.683l.115-.412-.4-.208.47-.045.113-.412.174.384.47-.046-.361.283.177.383-.4-.21Z" transform="translate(-17.444 -19.983)" fill="#a6d4ab" fill-rule="evenodd"/>
    <path id="Trazado_33" data-name="Trazado 33" d="M43.212-69.589l-.184.391-.463-.038.349.278-.185.391.4-.219.348.28-.1-.415.4-.218-.463-.037Z" transform="translate(-23.793 -26.228)" fill="#a6d4ab" fill-rule="evenodd"/>
    <path id="Trazado_34" data-name="Trazado 34" d="M43.522-73.288l-.081.418-.461.053.411.2-.082.417.334-.291.41.2-.2-.384.336-.291-.46.055Z" transform="translate(-24.025 -24.16)" fill="#a6d4ab" fill-rule="evenodd"/>
    <path id="Trazado_35" data-name="Trazado 35" d="M42.415-76.493l.027.423-.436.142.452.119.025.423.252-.349.452.12-.3-.334.254-.349-.436.143Z" transform="translate(-23.48 -22.368)" fill="#a6d4ab" fill-rule="evenodd"/>
    <path id="Trazado_36" data-name="Trazado 36" d="M39.13-78.6l.48.05.083.4.212-.368.481.052-.349-.28.213-.368-.428.2-.348-.28.085.4Z" transform="translate(-21.873 -20.855)" fill="#a6d4ab" fill-rule="evenodd"/>
    <path id="Trazado_37" data-name="Trazado 37" d="M36.336-79.71l-.091-.417.411-.19-.467-.065L36.1-80.8l-.2.376-.466-.067.344.3-.2.376.411-.193Z" transform="translate(-19.809 -19.961)" fill="#a6d4ab" fill-rule="evenodd"/>
    <path id="Trazado_38" data-name="Trazado 38" d="M36.5-66.916a.188.188,0,0,1,.193.184.2.2,0,0,1-.33.13A.183.183,0,0,1,36.5-66.916Z" transform="translate(-20.293 -27.722)" fill="#567372" fill-rule="evenodd"/>
    <path id="Trazado_39" data-name="Trazado 39" d="M31.989-66.913a.188.188,0,0,1,.193.184.2.2,0,0,1-.33.13A.183.183,0,0,1,31.989-66.913Z" transform="translate(-17.773 -27.724)" fill="#567372" fill-rule="evenodd"/>
    <path id="Trazado_40" data-name="Trazado 40" d="M30.058-66.6a.188.188,0,0,1,.193.183.194.194,0,0,1-.33.13A.182.182,0,0,1,30.058-66.6Z" transform="translate(-16.694 -27.899)" fill="#567372" fill-rule="evenodd"/>
    <path id="Trazado_41" data-name="Trazado 41" d="M34.155-66.987a.188.188,0,0,1,.193.184.194.194,0,0,1-.329.13A.183.183,0,0,1,34.155-66.987Z" transform="translate(-18.984 -27.682)" fill="#567372" fill-rule="evenodd"/>
    <path id="Trazado_42" data-name="Trazado 42" d="M38.368-66.613a.189.189,0,0,1,.194.183.2.2,0,0,1-.331.13A.182.182,0,0,1,38.368-66.613Z" transform="translate(-21.339 -27.891)" fill="#567372" fill-rule="evenodd"/>
    <path id="Trazado_43" data-name="Trazado 43" d="M8.6-37.083a.239.239,0,0,0,.27.27h41.57a.239.239,0,0,0,.27-.27.239.239,0,0,0-.27-.27H8.867A.239.239,0,0,0,8.6-37.083Z" transform="translate(-4.805 -44.247)" fill="#93d6f5" fill-rule="evenodd"/>
  </g>
</svg>
