<svg xmlns="http://www.w3.org/2000/svg" width="44" height="44" viewBox="0 0 44 44">
  <g id="Grupo_106" data-name="Grupo 106" transform="translate(-426 -6309)">
    <rect id="Rectángulo_47" data-name="Rectángulo 47" width="44" height="44" rx="6" transform="translate(426 6309)" fill="#eb00ff"/>
    <g id="Grupo_30" data-name="Grupo 30" transform="translate(434.064 6341.064)">
      <path id="Trazado_49" data-name="Trazado 49" d="M20.112-23.91a9.93,9.93,0,0,1,3.3.624,6.224,6.224,0,0,1,2.271,1.479,6.225,6.225,0,0,1,1.479,2.271,9.931,9.931,0,0,1,.624,3.3c.08,1.754.09,2.372.09,6.176s-.01,4.423-.09,6.176a9.93,9.93,0,0,1-.624,3.3,6.225,6.225,0,0,1-1.479,2.271,6.223,6.223,0,0,1-2.271,1.479,9.927,9.927,0,0,1-3.3.624c-1.753.08-2.371.09-6.176.09s-4.423-.01-6.176-.09a9.932,9.932,0,0,1-3.3-.624A6.224,6.224,0,0,1,2.192,1.679,6.225,6.225,0,0,1,.713-.592a9.931,9.931,0,0,1-.624-3.3C.01-5.641,0-6.258,0-10.064s.01-4.424.09-6.176a9.929,9.929,0,0,1,.624-3.3,6.223,6.223,0,0,1,1.479-2.271,6.223,6.223,0,0,1,2.271-1.479,9.93,9.93,0,0,1,3.3-.624c1.753-.08,2.37-.09,6.176-.09S18.359-23.99,20.112-23.91ZM13.936-20.9c-3.763,0-4.339.009-6.035.086a6.9,6.9,0,0,0-2.315.417,3.143,3.143,0,0,0-1.2.782,3.144,3.144,0,0,0-.782,1.2A6.9,6.9,0,0,0,3.183-16.1c-.077,1.7-.086,2.272-.086,6.035s.009,4.339.086,6.035A6.9,6.9,0,0,0,3.6-1.714a3.145,3.145,0,0,0,.782,1.2,3.144,3.144,0,0,0,1.2.782A6.9,6.9,0,0,0,7.9.688c1.7.077,2.273.087,6.035.087S18.273.765,19.971.688A6.9,6.9,0,0,0,22.286.271a3.143,3.143,0,0,0,1.2-.782,3.146,3.146,0,0,0,.782-1.2,6.9,6.9,0,0,0,.417-2.315c.077-1.7.086-2.274.086-6.035s-.009-4.338-.086-6.035a6.9,6.9,0,0,0-.417-2.315,3.146,3.146,0,0,0-.782-1.2,3.144,3.144,0,0,0-1.2-.782,6.9,6.9,0,0,0-2.315-.417C18.274-20.894,17.7-20.9,13.936-20.9Zm0,18.065A7.226,7.226,0,0,1,6.71-10.064a7.226,7.226,0,0,1,7.226-7.226,7.226,7.226,0,0,1,7.226,7.226A7.226,7.226,0,0,1,13.936-2.839Zm0-3.1a4.129,4.129,0,0,0,4.129-4.129,4.129,4.129,0,0,0-4.129-4.129,4.129,4.129,0,0,0-4.129,4.129A4.129,4.129,0,0,0,13.936-5.935Zm7.226-9.807a1.548,1.548,0,0,1-1.548-1.548,1.548,1.548,0,0,1,1.548-1.548A1.548,1.548,0,0,1,22.71-17.29,1.548,1.548,0,0,1,21.161-15.742Z" fill="#fff"/>
    </g>
  </g>
</svg>
