<svg xmlns="http://www.w3.org/2000/svg" width="44" height="44" viewBox="0 0 44 44">
  <g id="Grupo_29" data-name="Grupo 29" transform="translate(0 38)">
    <path id="Trazado_48" data-name="Trazado 48" d="M44-30.666A7.6,7.6,0,0,0,36.667-38H7.334A7.6,7.6,0,0,0,0-30.666V-1.334A7.6,7.6,0,0,0,7.334,6H22V-10.211H16.21v-6.947H22v-3.654c0-4.927,3.7-9.365,8.252-9.365h5.925v7.333H30.252c-.65,0-1.305.743-1.305,1.923v3.763h7.526l-.579,6.948H28.947V6h7.719A7.6,7.6,0,0,0,44-1.334Z" fill="#0f4efb"/>
  </g>
</svg>
